{"title":"RWBY.S02E08.Field.Trip.1080p.BluRay.x264-orangebirds","uid":12493300,"size":384688371,"categoryP":"video","categoryS":"hd___tv_shows","magnet":"?xt=urn:btih:19fa17ac89bfd3118e15b16fceac7bd3149cf1ca&amp;dn=RWBY.S02E08.Field.Trip.1080p.BluRay.x264-orangebirds&amp;tr=udp%3A%2F%2Ftracker.leechers-paradise.org%3A6969&amp;tr=udp%3A%2F%2Fzer0day.ch%3A1337&amp;tr=udp%3A%2F%2Fopen.demonii.com%3A1337&amp;tr=udp%3A%2F%2Ftracker.coppersurfer.tk%3A6969&amp;tr=udp%3A%2F%2Fexodus.desync.com%3A6969","seeders":0,"leechers":1,"uploader":"orangebirds","files":1,"time":1443216815,"description":"RWBY.S02E08.Field.Trip.1080p.BluRay.x264-orangebirds\r\n\r\nSource : RWBY.S02E08.1080p.BluRay.x264-SADPANDA\r\n\r\nVideo converted using x264 with setting CRF 18 preset very slow\r\nAudio in AC3 5.1, untouched from the source\r\n\r\nPlease help me seed, and don't forget to leave a comment!\r\n\r\nGeneral\r\nUnique ID                                : 217310141390624417906258265923736880696 (0xA37C692D9E29C26081BC2F4E6C74C638)\r\nComplete name                            : RWBY.S02E08.Field.Trip.1080p.BluRay.x264-orangebirds.mkv\r\nFormat                                   : Matroska\r\nFormat version                           : Version 2\r\nFile size                                : 367 MiB\r\nDuration                                 : 11mn 52s\r\nOverall bit rate                         : 4 319 Kbps\r\nEncoded date                             : UTC 2015-02-14 09:21:28\r\nWriting application                      : mkvmerge v7.6.0 ('Garden of Dreams') 32bit built on Feb  8 2015 12:51:39\r\nWriting library                          : libebml v1.3.1 + libmatroska v1.4.2\r\nDURATION                                 : 00:11:52.384000000\r\nNUMBER_OF_FRAMES                         : 22262\r\nNUMBER_OF_BYTES                          : 39893504\r\n_STATISTICS_WRITING_APP                  : mkvmerge v7.6.0 ('Garden of Dreams') 32bit built on Feb  8 2015 12:51:39\r\n_STATISTICS_WRITING_DATE_UTC             : 2015-02-14 09:21:28\r\n_STATISTICS_TAGS                         : BPS DURATION NUMBER_OF_FRAMES NUMBER_OF_BYTES\r\n\r\nVideo\r\nID                                       : 1\r\nFormat                                   : AVC\r\nFormat/Info                              : Advanced Video Codec\r\nFormat profile                           :   \r\nFormat settings, CABAC                   : Yes\r\nFormat settings, ReFrames                : 4 frames\r\nCodec ID                                 : V_MPEG4/ISO/AVC\r\nDuration                                 : 11mn 52s\r\nBit rate                                 : 3 785 Kbps\r\nWidth                                    : 1 920 pixels\r\nHeight                                   : 1 080 pixels\r\nDisplay aspect ratio                     : 16:9\r\nFrame rate mode                          : Constant\r\nFrame rate                               : 29.970 fps\r\nColor space                              : YUV\r\nChroma subsampling                       : 4:2:0\r\nBit depth                                : 8 bits\r\nScan type                                : Progressive\r\nBits/(Pixel*Frame)                       : 0.061\r\nStream size                              : 322 MiB (88%)\r\nWriting library                          : x264 core 144 r2525 40bb568\r\nEncoding settings                        : cabac=1 / ref=4 / deblock=1:0:0 / analyse=0x3:0x133 / me=umh / subme=10 / psy=1 / psy_rd=1.00:0.00 / mixed_ref=1 / me_range=24 / chroma_me=1 / trellis=2 / 8x8dct=1 / cqm=0 / deadzone=21,11 / fast_pskip=1 / chroma_qp_offset=-2 / threads=6 / lookahead_threads=1 / sliced_threads=0 / nr=0 / decimate=1 / interlaced=0 / bluray_compat=0 / constrained_intra=0 / bframes=8 / b_pyramid=2 / b_adapt=2 / b_bias=0 / direct=3 / weightb=1 / open_gop=0 / weightp=2 / keyint=300 / keyint_min=29 / scenecut=40 / intra_refresh=0 / rc_lookahead=60 / rc=crf / mbtree=1 / crf=18.0 / qcomp=0.60 / qpmin=0 / qpmax=69 / qpstep=4 / vbv_maxrate=62500 / vbv_bufsize=78125 / crf_max=0.0 / nal_hrd=none / filler=0 / ip_ratio=1.40 / aq=1:1.00\r\nDefault                                  : Yes\r\nForced                                   : No\r\n\r\nAudio\r\nID                                       : 2\r\nFormat                                   : AC-3\r\nFormat/Info                              : Audio Coding 3\r\nMode extension                           : CM (complete main)\r\nFormat settings, Endianness              : Big\r\nCodec ID                                 : A_AC3\r\nDuration                                 : 11mn 52s\r\nBit rate mode                            : Constant\r\nBit rate                                 : 448 Kbps\r\nChannel(s)                               : 6 channels\r\nChannel positions                        : Front: L C R, Side: L R, LFE\r\nSampling rate                            : 48.0 KHz\r\nBit depth                                : 16 bits\r\nCompression mode                         : Lossy\r\nStream size                              : 38.1 MiB (10%)\r\nLanguage                                 : English\r\nDefault                                  : Yes\r\nForced                                   : No","torrent":{"xt":"urn:btih:19fa17ac89bfd3118e15b16fceac7bd3149cf1ca","amp;dn":"RWBY.S02E08.Field.Trip.1080p.BluRay.x264-orangebirds","amp;tr":["udp%3A%2F%2Ftracker.leechers-paradise.org%3A6969","udp%3A%2F%2Fzer0day.ch%3A1337","udp%3A%2F%2Fopen.demonii.com%3A1337","udp%3A%2F%2Ftracker.coppersurfer.tk%3A6969","udp%3A%2F%2Fexodus.desync.com%3A6969"],"infoHash":"19fa17ac89bfd3118e15b16fceac7bd3149cf1ca","infoHashBuffer":{"type":"Buffer","data":[25,250,23,172,137,191,211,17,142,21,177,111,206,172,123,211,20,156,241,202]},"announce":[],"urlList":[]}}